<svg id="svg" version="1.1" xmlns="http://www.w3.org/2000/svg" xmlns:xlink="http://www.w3.org/1999/xlink" width="400" height="110.261569416499" viewBox="0, 0, 400,110.261569416499"><g id="svgg"><path id="path0" d="M159.000 0.167 C 159.000 0.269,158.207 0.334,156.958 0.335 C 154.304 0.338,153.686 0.443,153.463 0.930 C 153.307 1.273,153.208 1.303,152.494 1.218 C 151.250 1.071,150.167 1.284,150.167 1.677 C 150.167 1.960,150.045 2.000,149.179 2.000 C 148.230 2.000,147.667 2.253,147.667 2.679 C 147.667 2.764,147.329 2.833,146.917 2.833 C 146.228 2.833,146.167 2.867,146.167 3.250 C 146.167 3.639,146.111 3.667,145.333 3.667 C 144.852 3.667,144.500 3.742,144.500 3.845 C 144.500 4.201,144.011 4.500,143.429 4.500 C 142.951 4.500,142.833 4.564,142.833 4.823 C 142.833 5.078,142.676 5.170,142.083 5.259 C 141.499 5.346,141.333 5.441,141.333 5.686 C 141.333 5.910,141.214 6.000,140.917 6.000 C 140.583 6.000,140.500 6.083,140.500 6.417 C 140.500 6.750,140.417 6.833,140.083 6.833 C 139.750 6.833,139.667 6.917,139.667 7.250 C 139.667 7.583,139.583 7.667,139.250 7.667 C 138.917 7.667,138.833 7.750,138.833 8.083 C 138.833 8.417,138.750 8.500,138.417 8.500 C 138.083 8.500,138.000 8.583,138.000 8.917 C 138.000 9.250,137.917 9.333,137.583 9.333 C 137.278 9.333,137.167 9.422,137.167 9.667 C 137.167 9.889,137.056 10.000,136.833 10.000 C 136.591 10.000,136.500 10.111,136.500 10.405 C 136.500 10.698,136.396 10.825,136.125 10.863 C 135.898 10.896,135.731 11.050,135.702 11.255 C 135.675 11.441,135.487 11.666,135.285 11.755 C 135.003 11.879,134.905 12.082,134.865 12.625 C 134.820 13.251,134.767 13.333,134.407 13.333 C 134.037 13.333,134.000 13.400,134.000 14.072 C 134.000 14.711,133.949 14.817,133.625 14.863 C 133.305 14.909,133.243 15.033,133.199 15.708 C 133.158 16.344,133.089 16.500,132.845 16.500 C 132.503 16.500,132.333 17.087,132.333 18.271 C 132.333 18.889,132.283 19.000,132.000 19.000 C 131.690 19.000,131.667 19.111,131.667 20.572 C 131.667 22.075,131.650 22.146,131.292 22.197 L 130.917 22.250 130.871 55.083 C 130.823 89.655,130.808 88.578,131.332 88.714 C 131.634 88.794,131.667 88.940,131.667 90.233 C 131.667 91.483,131.709 91.690,132.000 91.872 C 132.239 92.021,132.333 92.261,132.333 92.715 C 132.333 93.382,132.728 94.333,133.004 94.333 C 133.094 94.333,133.168 94.540,133.169 94.792 C 133.173 95.555,133.355 96.000,133.665 96.000 C 133.877 96.000,133.986 96.182,134.063 96.661 C 134.129 97.076,134.293 97.389,134.501 97.501 C 134.695 97.604,134.833 97.849,134.833 98.089 C 134.833 98.416,134.918 98.500,135.250 98.500 C 135.586 98.500,135.667 98.583,135.667 98.928 C 135.667 99.487,135.949 100.000,136.256 100.000 C 136.405 100.000,136.500 100.162,136.500 100.417 C 136.500 100.679,136.594 100.833,136.754 100.833 C 136.893 100.833,137.093 101.021,137.197 101.250 C 137.301 101.479,137.520 101.667,137.682 101.667 C 137.861 101.667,137.998 101.814,138.030 102.042 C 138.064 102.279,138.217 102.436,138.448 102.469 C 138.675 102.501,138.832 102.658,138.865 102.885 C 138.898 103.116,139.054 103.270,139.292 103.303 C 139.535 103.338,139.667 103.471,139.667 103.682 C 139.667 103.908,139.814 104.038,140.144 104.104 C 140.407 104.156,140.816 104.380,141.054 104.600 C 141.291 104.820,141.592 105.000,141.723 105.000 C 141.854 105.000,142.000 105.150,142.048 105.333 C 142.120 105.606,142.276 105.667,142.901 105.667 C 143.607 105.667,143.667 105.699,143.667 106.083 C 143.667 106.450,143.738 106.500,144.262 106.500 C 144.844 106.500,145.333 106.799,145.333 107.155 C 145.333 107.255,145.658 107.333,146.072 107.333 C 146.711 107.333,146.817 107.384,146.863 107.708 C 146.911 108.045,147.023 108.088,147.960 108.133 C 148.854 108.176,149.041 108.241,149.271 108.591 C 149.508 108.954,149.658 109.000,150.591 109.000 C 151.476 109.000,151.660 109.050,151.744 109.313 C 151.870 109.711,152.482 109.833,154.354 109.833 C 155.229 109.833,155.833 109.901,155.833 110.000 C 155.833 110.111,173.639 110.167,208.918 110.167 L 262.002 110.167 261.959 96.708 L 261.917 83.250 216.026 83.208 C 170.433 83.166,170.132 83.164,169.712 82.833 C 169.343 82.543,169.035 82.500,167.311 82.500 L 165.333 82.500 165.333 82.093 C 165.333 81.744,165.246 81.680,164.708 81.635 C 164.249 81.597,164.040 81.484,163.919 81.208 C 163.822 80.988,163.608 80.833,163.398 80.833 C 163.111 80.833,163.022 80.703,162.933 80.150 C 162.856 79.665,162.729 79.441,162.495 79.380 C 162.219 79.308,162.167 79.150,162.167 78.386 C 162.167 77.391,161.955 76.833,161.577 76.833 C 161.364 76.833,161.333 74.073,161.333 55.083 C 161.333 33.854,161.341 33.333,161.649 33.333 C 162.053 33.333,162.167 33.021,162.167 31.915 C 162.167 31.117,162.206 31.018,162.542 30.970 C 162.779 30.936,162.936 30.783,162.969 30.552 C 163.001 30.325,163.158 30.168,163.385 30.135 C 163.616 30.102,163.770 29.946,163.803 29.708 C 163.849 29.384,163.956 29.333,164.595 29.333 C 165.271 29.333,165.333 29.298,165.333 28.917 L 165.333 28.500 167.761 28.500 C 170.186 28.500,170.833 28.376,170.833 27.911 C 170.833 27.697,176.496 27.667,216.417 27.667 L 262.000 27.667 262.000 13.833 L 262.000 0.000 210.500 0.000 C 176.278 0.000,159.000 0.056,159.000 0.167 M270.000 13.083 L 270.000 26.167 293.833 26.167 L 317.667 26.167 317.667 67.717 C 317.667 100.606,317.710 109.360,317.875 109.715 L 318.083 110.164 335.875 110.165 L 353.667 110.167 353.667 68.167 L 353.667 26.167 376.833 26.167 L 400.000 26.167 400.000 13.083 L 400.000 0.000 335.000 0.000 L 270.000 0.000 270.000 13.083 M-0.000 55.250 L 0.000 110.167 60.583 110.167 L 121.167 110.167 121.167 97.083 L 121.167 84.000 78.083 84.000 L 35.000 84.000 35.000 75.584 L 35.000 67.167 75.625 67.125 L 116.250 67.083 116.250 55.500 L 116.250 43.917 75.625 43.875 L 35.000 43.833 35.000 35.417 L 35.000 27.001 78.042 26.959 L 121.083 26.917 121.083 13.667 L 121.083 0.417 60.542 0.375 L -0.000 0.333 -0.000 55.250 " stroke="none" fill="#143494" fill-rule="evenodd"></path><path id="path1" d="" stroke="none" fill="#183494" fill-rule="evenodd"></path><path id="path2" d="" stroke="none" fill="#183494" fill-rule="evenodd"></path><path id="path3" d="" stroke="none" fill="#183494" fill-rule="evenodd"></path><path id="path4" d="" stroke="none" fill="#183494" fill-rule="evenodd"></path></g></svg>